<svg xmlns="http://www.w3.org/2000/svg" viewBox="0 0 1600 900" shape-rendering="crispEdges">
  <defs>
    <linearGradient id="sky" x1="0" y1="0" x2="0" y2="1">
      <stop offset="0" stop-color="#7DD3FC"/>
      <stop offset="0.62" stop-color="#BAE6FD"/>
      <stop offset="1" stop-color="#E0F2FE"/>
    </linearGradient>
  </defs>
  <rect width="1600" height="900" fill="url(#sky)"/>
  <rect x="0" y="690" width="1600" height="210" fill="#86EFAC"/>
  <rect x="0" y="744" width="1600" height="156" fill="#65A30D"/>
  <g opacity=".72">
    <rect x="70" y="560" width="210" height="96" fill="#A7F3D0"/>
    <rect x="184" y="520" width="150" height="136" fill="#BBF7D0"/>
    <rect x="1260" y="545" width="250" height="112" fill="#A7F3D0"/>
    <rect x="1136" y="586" width="190" height="70" fill="#D9F99D"/>
    <rect x="420" y="584" width="290" height="76" fill="#BFDBFE"/>
  </g>
  <g fill="#FFFFFF" opacity=".78">
    <rect x="122" y="108" width="94" height="22"/>
    <rect x="160" y="86" width="156" height="22"/>
    <rect x="238" y="112" width="104" height="22"/>
    <rect x="1110" y="122" width="120" height="22"/>
    <rect x="1170" y="96" width="160" height="22"/>
    <rect x="1284" y="124" width="92" height="22"/>
  </g>
  <g transform="translate(925 328)">
    <rect x="72" y="180" width="310" height="250" fill="#A16207"/>
    <rect x="96" y="202" width="262" height="228" fill="#D97706"/>
    <rect x="44" y="156" width="366" height="52" fill="#7C2D12"/>
    <rect x="78" y="104" width="300" height="52" fill="#92400E"/>
    <rect x="118" y="52" width="220" height="52" fill="#B45309"/>
    <rect x="150" y="12" width="156" height="52" fill="#D97706"/>
    <rect x="192" y="300" width="72" height="130" fill="#78350F"/>
    <rect x="206" y="318" width="18" height="18" fill="#FEF08A"/>
    <rect x="118" y="242" width="70" height="62" fill="#BAE6FD"/>
    <rect x="276" y="242" width="70" height="62" fill="#BAE6FD"/>
    <rect x="126" y="250" width="54" height="46" fill="#E0F2FE"/>
    <rect x="284" y="250" width="54" height="46" fill="#E0F2FE"/>
    <rect x="80" y="430" width="316" height="28" fill="#92400E"/>
  </g>
  <g transform="translate(62 390)">
    <rect x="58" y="178" width="54" height="188" fill="#854D0E"/>
    <rect x="18" y="122" width="136" height="78" fill="#166534"/>
    <rect x="0" y="82" width="176" height="78" fill="#15803D"/>
    <rect x="30" y="40" width="126" height="76" fill="#16A34A"/>
    <rect x="64" y="0" width="84" height="56" fill="#22C55E"/>
  </g>
  <g transform="translate(1340 360)">
    <rect x="50" y="196" width="48" height="170" fill="#854D0E"/>
    <rect x="16" y="132" width="118" height="80" fill="#166534"/>
    <rect x="0" y="82" width="154" height="76" fill="#15803D"/>
    <rect x="30" y="34" width="108" height="70" fill="#22C55E"/>
    <rect x="58" y="0" width="70" height="48" fill="#4ADE80"/>
  </g>
  <g transform="translate(512 690)">
    <rect x="0" y="54" width="54" height="36" fill="#FDE68A"/>
    <rect x="54" y="34" width="48" height="56" fill="#FEF3C7"/>
    <rect x="102" y="54" width="64" height="36" fill="#FDE68A"/>
    <rect x="40" y="20" width="92" height="28" fill="#FBBF24"/>
    <rect x="30" y="90" width="18" height="22" fill="#92400E"/>
    <rect x="122" y="90" width="18" height="22" fill="#92400E"/>
  </g>
</svg>
