<svg xmlns="http://www.w3.org/2000/svg" viewBox="0 0 96 96" shape-rendering="crispEdges">
  <rect width="96" height="96" fill="none"/>
  <g class="propeller">
    <rect x="8" y="18" width="24" height="8" fill="#C084FC"/>
    <rect x="16" y="10" width="8" height="24" fill="#A855F7"/>
    <rect x="64" y="18" width="24" height="8" fill="#C084FC"/>
    <rect x="72" y="10" width="8" height="24" fill="#A855F7"/>
    <rect x="8" y="70" width="24" height="8" fill="#C084FC"/>
    <rect x="16" y="62" width="8" height="24" fill="#A855F7"/>
    <rect x="64" y="70" width="24" height="8" fill="#C084FC"/>
    <rect x="72" y="62" width="8" height="24" fill="#A855F7"/>
  </g>
  <rect x="28" y="42" width="40" height="20" fill="#7DD3FC"/>
  <rect x="36" y="34" width="24" height="36" fill="#38BDF8"/>
  <rect x="40" y="42" width="16" height="10" fill="#E0F2FE"/>
  <rect x="18" y="30" width="10" height="12" fill="#9333EA"/>
  <rect x="68" y="30" width="10" height="12" fill="#9333EA"/>
  <rect x="18" y="62" width="10" height="12" fill="#9333EA"/>
  <rect x="68" y="62" width="10" height="12" fill="#9333EA"/>
</svg>
